{
	"asset":{
		"generator":"Khronos glTF Blender I/O v5.0.21",
		"version":"2.0"
	},
	"extensionsUsed":[
		"KHR_materials_specular"
	],
	"scene":0,
	"scenes":[
		{
			"name":"Scene",
			"nodes":[
				0
			]
		}
	],
	"nodes":[
		{
			"mesh":0,
			"name":"amg wheel caps",
			"rotation":[
				0.7071068286895752,
				0,
				0,
				0.7071068286895752
			]
		}
	],
	"materials":[
		{
			"doubleSided":true,
			"extensions":{
				"KHR_materials_specular":{
					"specularFactor":0
				}
			},
			"name":"Steel_-_Satin.001",
			"pbrMetallicRoughness":{
				"baseColorFactor":[
					0.6274510025978088,
					0.6274510025978088,
					0.6274510025978088,
					1
				],
				"metallicFactor":0
			}
		}
	],
	"meshes":[
		{
			"name":"amg wheel caps.001",
			"primitives":[
				{
					"attributes":{
						"POSITION":0,
						"NORMAL":1,
						"TEXCOORD_0":2
					},
					"indices":3,
					"material":0
				}
			]
		}
	],
	"accessors":[
		{
			"bufferView":0,
			"componentType":5126,
			"count":3921,
			"max":[
				3.7249999046325684,
				1.600000023841858,
				3.7145841121673584
			],
			"min":[
				-3.7249999046325684,
				0,
				-3.7145841121673584
			],
			"type":"VEC3"
		},
		{
			"bufferView":1,
			"componentType":5126,
			"count":3921,
			"type":"VEC3"
		},
		{
			"bufferView":2,
			"componentType":5126,
			"count":3921,
			"type":"VEC2"
		},
		{
			"bufferView":3,
			"componentType":5123,
			"count":13176,
			"type":"SCALAR"
		}
	],
	"bufferViews":[
		{
			"buffer":0,
			"byteLength":47052,
			"byteOffset":0,
			"target":34962
		},
		{
			"buffer":0,
			"byteLength":47052,
			"byteOffset":47052,
			"target":34962
		},
		{
			"buffer":0,
			"byteLength":31368,
			"byteOffset":94104,
			"target":34962
		},
		{
			"buffer":0,
			"byteLength":26352,
			"byteOffset":125472,
			"target":34963
		}
	],
	"buffers":[
		{
			"byteLength":151824,
			"uri":"testamg.bin"
		}
	]
}
